<svg width="45" height="80" viewBox="0 0 45 80" fill="none" xmlns="http://www.w3.org/2000/svg">
<g clip-path="url(#clip0_1_1207)">
<path d="M44.1366 12.8487V67.1547C44.137 68.8428 43.8046 70.5144 43.1585 72.0738C42.5123 73.6333 41.565 75.0501 40.3708 76.2432C39.1765 77.4362 37.7588 78.3821 36.1987 79.0268C34.6386 79.6714 32.9667 80.0022 31.2786 80.0001H12.8328C9.42794 79.9976 6.16341 78.6431 3.75697 76.2343C1.35053 73.8255 -0.000834247 70.5596 3.86387e-07 67.1547V41.4765C1.31441 42.8601 9.21347 50.9981 22.0117 51.0138C34.876 51.0484 42.8254 42.8381 44.1241 41.4765C43.4951 40.5331 36.1055 29.8417 22.5054 29.6185C8.35502 29.3795 0.531429 40.6746 0.00314799 41.4765V12.8613C0.00273498 11.1741 0.33468 9.5034 0.980037 7.94456C1.62539 6.38572 2.57152 4.96928 3.76437 3.77614C4.95722 2.583 6.37342 1.63654 7.9321 0.990799C9.49078 0.345061 11.1614 0.0127014 12.8486 0.0127015H31.2786C32.9658 0.011049 34.6367 0.341774 36.1961 0.985987C37.7554 1.6302 39.1725 2.57528 40.3665 3.76725C41.5605 4.95922 42.508 6.37473 43.1549 7.93294C43.8018 9.49115 44.1354 11.1615 44.1366 12.8487Z" fill="white"/>
<path d="M22.0684 51.0167C27.9853 51.0167 32.7818 46.2201 32.7818 40.3033C32.7818 34.3864 27.9853 29.5898 22.0684 29.5898C16.1515 29.5898 11.355 34.3864 11.355 40.3033C11.355 46.2201 16.1515 51.0167 22.0684 51.0167Z" fill="white"/>
</g>
<defs>
<clipPath id="clip0_1_1207">
<rect width="44.1366" height="80" fill="white"/>
</clipPath>
</defs>
</svg>
