<svg width="1882" height="900" viewBox="0 0 1882 900" fill="none" xmlns="http://www.w3.org/2000/svg">
<g clip-path="url(#clip0_3144_3162)">
<path d="M6.76123 654.562H0V659.469H6.76123V654.562Z" fill="#018576"/>
<path d="M6.76123 664.106H0V669.014H6.76123V664.106Z" fill="#018576"/>
<path d="M6.76123 673.651H0V678.558H6.76123V673.651Z" fill="#018576"/>
<path d="M2.80383 649.101V47.0783L65.9086 1.28809H531.653" stroke="#00FFB3" stroke-width="2" stroke-miterlimit="10"/>
<path d="M64.0453 654.498V634.288L87.2394 617.453V556.181L47.8077 527.56V161.56" stroke="#00FFB3" stroke-width="2" stroke-miterlimit="10"/>
<path d="M56.6276 53.8147L101.152 21.4846H500.1" stroke="#00FFB3" stroke-width="2" stroke-miterlimit="10"/>
<path d="M57.852 66.2317H50.4342V71.6157H57.852V66.2317Z" fill="#018576"/>
<path d="M57.852 76.7034H50.4342V82.0874H57.852V76.7034Z" fill="#018576"/>
<path d="M57.852 87.1882H50.4342V92.5723H57.852V87.1882Z" fill="#018576"/>
<path d="M82.6077 844.395L133.627 881.426H758.021" stroke="#00FFB3" stroke-width="2" stroke-miterlimit="10"/>
<path d="M83.8322 879.417L5.90947 822.846L4.04614 685.024" stroke="#00FFB3" stroke-width="2" stroke-miterlimit="10"/>
<path d="M15.7939 854.712L76.4143 898.712H421.557" stroke="#00FFB3" stroke-width="2" stroke-miterlimit="10"/>
<path d="M443.81 863.406H424.023V868.198H443.81V863.406Z" fill="#018576"/>
<path d="M474.333 863.406H454.546V868.198H474.333V863.406Z" fill="#018576"/>
<path d="M504.839 863.406H485.052V868.198H504.839V863.406Z" fill="#018576"/>
<path d="M467.998 37.4951H448.211V42.2867H467.998V37.4951Z" fill="#018576"/>
<path d="M498.503 37.4951H478.716V42.2867H498.503V37.4951Z" fill="#018576"/>
<path d="M529.026 37.4951H509.24V42.2867H529.026V37.4951Z" fill="#018576"/>
<path d="M40.3367 143.45L56.0064 154.824" stroke="#00FFB3" stroke-width="2" stroke-miterlimit="10"/>
<path d="M56.0064 143.45L40.3367 154.824" stroke="#00FFB3" stroke-width="2" stroke-miterlimit="10"/>
<path d="M55.1724 663.166L70.8421 674.54" stroke="#00FFB3" stroke-width="2" stroke-miterlimit="10"/>
<path d="M70.8421 663.166L55.1724 674.54" stroke="#00FFB3" stroke-width="2" stroke-miterlimit="10"/>
<path d="M275.152 824.031L302.8 844.099" stroke="#00FFB3" stroke-width="2" stroke-miterlimit="10"/>
<path d="M302.8 824.031L275.152 844.099" stroke="#00FFB3" stroke-width="2" stroke-miterlimit="10"/>
<path d="M101.152 21.4846H529.168" stroke="#00FFB3" stroke-width="2" stroke-miterlimit="10"/>
<path d="M1875.24 659.469H1882V654.562H1875.24V659.469Z" fill="#018576"/>
<path d="M1875.24 669.014H1882V664.106H1875.24V669.014Z" fill="#018576"/>
<path d="M1875.24 678.558H1882V673.651H1875.24V678.558Z" fill="#018576"/>
<path d="M1879.18 649.101V47.0783L1816.09 1.28809H1350.35" stroke="#00FFB3" stroke-width="2" stroke-miterlimit="10"/>
<path d="M1817.95 654.498V634.288L1794.76 617.453V556.181L1834.19 527.56V161.56" stroke="#00FFB3" stroke-width="2" stroke-miterlimit="10"/>
<path d="M1825.37 53.8147L1780.83 21.4846H1381.9" stroke="#00FFB3" stroke-width="2" stroke-miterlimit="10"/>
<path d="M1824.15 71.6157H1831.57V66.2317H1824.15V71.6157Z" fill="#018576"/>
<path d="M1824.15 82.1003H1831.57V76.7163H1824.15V82.1003Z" fill="#018576"/>
<path d="M1824.15 92.5723H1831.57V87.1882H1824.15V92.5723Z" fill="#018576"/>
<path d="M1799.39 844.395L1748.37 881.426H1123.98" stroke="#00FFB3" stroke-width="2" stroke-miterlimit="10"/>
<path d="M1798.15 879.417L1876.09 822.846L1877.95 685.024" stroke="#00FFB3" stroke-width="2" stroke-miterlimit="10"/>
<path d="M1866.19 854.712L1805.59 898.712H1460.44" stroke="#00FFB3" stroke-width="2" stroke-miterlimit="10"/>
<path d="M1438.19 868.198H1457.98V863.406H1438.19V868.198Z" fill="#018576"/>
<path d="M1407.67 868.198H1427.45V863.406H1407.67V868.198Z" fill="#018576"/>
<path d="M1377.16 868.198H1396.95V863.406H1377.16V868.198Z" fill="#018576"/>
<path d="M1414 42.2739H1433.79V37.4824H1414V42.2739Z" fill="#018576"/>
<path d="M1383.5 42.2739H1403.28V37.4824H1383.5V42.2739Z" fill="#018576"/>
<path d="M1352.97 42.2739H1372.76V37.4824H1352.97V42.2739Z" fill="#018576"/>
<path d="M1841.66 143.45L1825.99 154.824" stroke="#00FFB3" stroke-width="2" stroke-miterlimit="10"/>
<path d="M1825.99 143.45L1841.66 154.824" stroke="#00FFB3" stroke-width="2" stroke-miterlimit="10"/>
<path d="M1826.83 663.166L1811.16 674.54" stroke="#00FFB3" stroke-width="2" stroke-miterlimit="10"/>
<path d="M1811.16 663.166L1826.83 674.54" stroke="#00FFB3" stroke-width="2" stroke-miterlimit="10"/>
<path d="M1606.83 824.031L1579.2 844.099" stroke="#00FFB3" stroke-width="2" stroke-miterlimit="10"/>
<path d="M1579.2 824.031L1606.83 844.099" stroke="#00FFB3" stroke-width="2" stroke-miterlimit="10"/>
<path d="M1780.85 21.4846H1352.81" stroke="#00FFB3" stroke-width="2" stroke-miterlimit="10"/>
</g>
<defs>
<clipPath id="clip0_3144_3162">
<rect width="1882" height="900" fill="white"/>
</clipPath>
</defs>
</svg>
