<svg width="62" height="62" viewBox="0 0 62 62" fill="none" xmlns="http://www.w3.org/2000/svg">
<path d="M31 62C48.1208 62 62 48.1208 62 31C62 13.8792 48.1208 0 31 0C13.8792 0 0 13.8792 0 31C0 48.1208 13.8792 62 31 62Z" fill="#012E3F"/>
<path d="M43 16.7389V45.2496C43.0002 46.1358 42.8195 47.0134 42.4681 47.8321C42.1167 48.6508 41.6016 49.3946 40.9523 50.021C40.3029 50.6473 39.532 51.144 38.6836 51.4824C37.8353 51.8208 36.9262 51.9945 36.0083 51.9934H25.9781C24.1266 51.9921 22.3515 51.2809 21.0429 50.0163C19.7344 48.7517 18.9995 47.0371 19 45.2496V31.7685C19.7147 32.4949 24.01 36.7673 30.9692 36.7756C37.9644 36.7938 42.287 32.4833 42.9932 31.7685C42.6512 31.2732 38.6329 25.6602 31.2377 25.543C23.5432 25.4176 19.289 31.3475 19.0017 31.7685V16.7455C19.0015 15.8597 19.182 14.9826 19.5329 14.1642C19.8838 13.3458 20.3983 12.6022 21.0469 11.9758C21.6956 11.3494 22.4656 10.8525 23.3132 10.5135C24.1608 10.1745 25.0692 10 25.9866 10H36.0083C36.9257 9.99914 37.8343 10.1728 38.6822 10.511C39.5301 10.8492 40.3007 11.3454 40.9499 11.9711C41.5992 12.5969 42.1144 13.3401 42.4662 14.1581C42.8179 14.9762 42.9993 15.8531 43 16.7389Z" fill="#00FFB3"/>
<path d="M31 37C34.3137 37 37 34.3137 37 31C37 27.6863 34.3137 25 31 25C27.6863 25 25 27.6863 25 31C25 34.3137 27.6863 37 31 37Z" fill="#00FFB3"/>
</svg>
